<svg id="Слой_1" data-name="Слой 1" xmlns="http://www.w3.org/2000/svg" viewBox="0 0 64 64"><defs><style>.cls-1{fill:#fff;opacity:0;}.cls-2{fill:#5eb2ff;}.cls-3{fill:#5fa5f8;}.cls-4{fill:#accef8;}.cls-5{fill:#0072d8;}</style></defs><rect class="cls-1" width="64" height="64"/><path class="cls-2" d="M14,28H10A16,16,0,0,1,34,14.14l-2,3.47A12,12,0,0,0,14,28Z"/><circle class="cls-3" cx="23" cy="43" r="2"/><circle class="cls-4" cx="26" cy="43" r="2"/><path class="cls-5" d="M48.78,20.25h-.07A24,24,0,1,0,13,48.14v-5a20,20,0,1,1,31.36-23,16.11,16.11,0,0,0-6.36,2l2,3.47A12.11,12.11,0,0,1,46.84,24H47a12,12,0,0,1,4,22.84v4.3a16,16,0,0,0-2.22-30.94Z"/><path class="cls-2" d="M45,35H19a4,4,0,0,0-4,4V56a4,4,0,0,0,4,4H45a4,4,0,0,0,4-4V39A4,4,0,0,0,45,35ZM19,56V54H45v2Zm26-6H19V39H45Z"/></svg>