<svg id="Слой_1" data-name="Слой 1" xmlns="http://www.w3.org/2000/svg" viewBox="0 0 64 64"><defs><style>.cls-1{fill:#fff;opacity:0;}.cls-2{fill:#58dee3;}.cls-3{fill:#00a4ab;}.cls-4{fill:#00d0da;}</style></defs><rect class="cls-1" width="64" height="64"/><path class="cls-2" d="M14,28H10A16,16,0,0,1,34,14.14l-2,3.47A12,12,0,0,0,14,28Z"/><path class="cls-3" d="M35,54l-.82-4.94A3,3,0,0,0,35,47a3,3,0,0,0-6,0,3,3,0,0,0,.82,2.06L29,54Z"/><path class="cls-3" d="M45,44V38H41V36a9,9,0,0,0-18,0v2H19V60H45V44ZM27,36a5,5,0,0,1,10,0v2H27ZM41,56H23V42H41Z"/><path class="cls-4" d="M48.78,20.25h-.07A24,24,0,1,0,17,50.24V45.82A20,20,0,1,1,44.36,20.1a16.11,16.11,0,0,0-6.36,2l2,3.47A12.11,12.11,0,0,1,46.84,24H47A12,12,0,0,1,47,48v4a16,16,0,0,0,1.78-31.7Z"/></svg>