<svg id="Слой_1" data-name="Слой 1" xmlns="http://www.w3.org/2000/svg" viewBox="0 0 64 64"><defs><style>.cls-1{fill:#fff;opacity:0;}.cls-2{fill:#a1e3ff;}.cls-3{fill:#46b4e4;}.cls-4{fill:#009adc;}</style></defs><rect class="cls-1" width="64" height="64"/><path class="cls-2" d="M14,28H10A16,16,0,0,1,34,14.14l-2,3.47A12,12,0,0,0,14,28Z"/><path class="cls-3" d="M32,30A15,15,0,1,0,47,45,15,15,0,0,0,32,30ZM42.81,43h-3a19.32,19.32,0,0,0-2.46-7.6A11,11,0,0,1,42.81,43ZM32,55.25A15.32,15.32,0,0,1,28.19,47h7.58A15.32,15.32,0,0,1,32,55.25ZM28.19,43A15.32,15.32,0,0,1,32,34.75,15.32,15.32,0,0,1,35.77,43Zm-1.6-7.57A19.37,19.37,0,0,0,24.15,43h-3A11,11,0,0,1,26.59,35.43ZM21.19,47h3a19.37,19.37,0,0,0,2.44,7.57A11,11,0,0,1,21.19,47Zm16.16,7.6A19.32,19.32,0,0,0,39.81,47h3A11,11,0,0,1,37.35,54.6Z"/><path class="cls-4" d="M48.78,20.25h-.07a24,24,0,1,0-33,29.41A16.89,16.89,0,0,1,15,45c0-.11,0-.21,0-.32A20,20,0,1,1,44.36,20.1a16.11,16.11,0,0,0-6.36,2l2,3.47A12.11,12.11,0,0,1,46.84,24H47a12,12,0,0,1,1.76,23.61,16.79,16.79,0,0,1-1.26,4.26,16,16,0,0,0,1.27-31.67Z"/></svg>