<svg id="Слой_1" data-name="Слой 1" xmlns="http://www.w3.org/2000/svg" viewBox="0 0 64 64"><defs><style>.cls-1{fill:#fff;opacity:0;}.cls-2{fill:#5eb2ff;}.cls-3{fill:#0072d8;}.cls-4{fill:#a5d4ff;}</style></defs><rect class="cls-1" width="64" height="64"/><path class="cls-2" d="M15,28H11A16.06,16.06,0,0,1,35,14.1l-2,3.5A11.49,11.49,0,0,0,27,16,12,12,0,0,0,15,28Z"/><path class="cls-3" d="M28.6,53.1A11.6,11.6,0,0,1,27,55.2,15.17,15.17,0,0,1,23.2,47h5a18.23,18.23,0,0,1,1.1-4H23.2A14.84,14.84,0,0,1,27,34.8,16.38,16.38,0,0,1,30.4,41,11.6,11.6,0,0,1,32,38.9V35.7a10.53,10.53,0,0,1,1-4.4A15,15,0,1,0,27,60a14.26,14.26,0,0,0,5-.9A13.82,13.82,0,0,1,28.6,53.1ZM16.2,47h3a19.91,19.91,0,0,0,2.4,7.6A11.16,11.16,0,0,1,16.2,47Zm2.9-4h-3a11.16,11.16,0,0,1,5.4-7.6A21.82,21.82,0,0,0,19.1,43Z"/><path class="cls-2" d="M50,40.5V35.6a6,6,0,0,0-6-6H42a6,6,0,0,0-6,6v4.9A11.14,11.14,0,0,0,32,49a11,11,0,0,0,22,0A11.14,11.14,0,0,0,50,40.5ZM40,35.6a2,2,0,0,1,2-2h2a2,2,0,0,1,2,2v2.8a10.32,10.32,0,0,0-3-.4,15.44,15.44,0,0,0-3,.4ZM43,56a7,7,0,1,1,7-7A7,7,0,0,1,43,56Z"/><path class="cls-2" d="M46,48a3,3,0,0,0-6,0,2.87,2.87,0,0,0,1,2.2V53h4V50.2A2.87,2.87,0,0,0,46,48Z"/><path class="cls-4" d="M49.8,20.2A24.27,24.27,0,0,0,27,4,23.95,23.95,0,0,0,10,44.88a16.84,16.84,0,0,1,.84-5.15A19.81,19.81,0,0,1,7,28,20.06,20.06,0,0,1,27,8,20.3,20.3,0,0,1,45.4,20.1a16.48,16.48,0,0,0-6.4,2l2,3.5A12.65,12.65,0,0,1,47.8,24H48a11.93,11.93,0,0,1,7.21,20.62A12.85,12.85,0,0,1,56,49v.09A15.89,15.89,0,0,0,63,35.9,16.15,16.15,0,0,0,49.8,20.2Z"/></svg>