<svg id="Слой_1" data-name="Слой 1" xmlns="http://www.w3.org/2000/svg" viewBox="0 0 64 64"><defs><style>.cls-1{fill:#fff;opacity:0;}.cls-2{fill:#5eb2ff;}.cls-3{fill:#1d61bc;}.cls-4{fill:#0072d8;}</style></defs><rect class="cls-1" width="64" height="64"/><path class="cls-2" d="M14,28H10A16,16,0,0,1,34,14.14l-2,3.47A12,12,0,0,0,14,28Z"/><path class="cls-3" d="M19,40V56l16,0L51,40Z"/><path class="cls-4" d="M48.78,20.25h-.07A24,24,0,1,0,17,50.24V45.82A20,20,0,1,1,44.36,20.1a16.11,16.11,0,0,0-6.36,2l2,3.47A12.11,12.11,0,0,1,46.84,24H47a12,12,0,0,1-1,24h-.19l-.81.81L41.81,52H46a16,16,0,0,0,2.78-31.75Z"/></svg>