<svg id="Слой_1" data-name="Слой 1" xmlns="http://www.w3.org/2000/svg" viewBox="0 0 64 64"><defs><style>.cls-1{fill:#fff;opacity:0;}.cls-2{fill:#acfbff;}.cls-3{fill:#00d0da;}.cls-4{fill:#58dee3;}</style></defs><rect class="cls-1" width="64" height="64"/><path class="cls-2" d="M10,28h4A12,12,0,0,1,32,17.61l2-3.47A16,16,0,0,0,10,28Z"/><path class="cls-3" d="M32,29.89,18,34.56V36c0,12.93,4.09,20.29,13.28,23.86l.72.29.72-.29C41.91,56.29,46,48.93,46,36V34.56Zm0,4.22,6,2L24.71,49.46c-1.7-3-2.56-7-2.69-12Zm0,21.73a15.9,15.9,0,0,1-4.84-3.18L42,37.87C41.62,47.51,38.58,53,32,55.84Z"/><path class="cls-4" d="M48.78,20.25h-.07a24,24,0,1,0-30,30.62,26.4,26.4,0,0,1-1.67-5A20,20,0,1,1,44.36,20.1a16.11,16.11,0,0,0-6.36,2l2,3.47A12.11,12.11,0,0,1,46.84,24H47A12,12,0,0,1,46.39,48,24.17,24.17,0,0,1,45,51.47V52h1a16,16,0,0,0,2.78-31.75Z"/></svg>