<svg xmlns="http://www.w3.org/2000/svg" width="114.845" height="73.1" viewBox="0 0 114.845 73.1">
    <defs>
        <style>
            .cls-1{fill:#009adc}
        </style>
    </defs>
    <g id="logo_it-grad" transform="translate(-6 -4)">
        <path id="Path_95" d="M6 53.958V31.9h3.646v22.058z" data-name="Path 95" transform="translate(0 22.96)"/>
        <path id="Path_96" d="M19.608 53.958h-3.645V35H9.4v-3.1h16.589V35h-6.38z" data-name="Path 96" transform="translate(2.798 22.96)"/>
        <path id="Path_97" d="M19 41.7v-3.1h7.839v3.1z" data-name="Path 97" transform="translate(10.698 28.474)"/>
        <path id="Path_98" d="M34.708 42.173h8.2v11.12a29.139 29.139 0 0 1-3.828.911 28.225 28.225 0 0 1-4.01.182c-3.281 0-6.016-.911-7.839-2.917S24.5 46.73 24.5 43.085a11.284 11.284 0 0 1 3.1-8.385 11.578 11.578 0 0 1 8.386-3.1 15.625 15.625 0 0 1 6.563 1.276l-1.276 3.1A12 12 0 0 0 35.8 34.7a7.553 7.553 0 0 0-5.651 2.188c-1.458 1.458-2.005 3.464-2.005 6.016 0 2.734.547 4.74 1.823 6.2a6.743 6.743 0 0 0 5.287 2.188 33.4 33.4 0 0 0 3.828-.365v-5.655h-4.556v-3.1z" data-name="Path 98" transform="translate(15.224 22.713)"/>
        <path id="Path_99" d="M40.546 45.207v8.75H36.9V31.9h6.2c2.917 0 4.922.547 6.38 1.641s2.005 2.734 2.005 4.922c0 2.734-1.458 4.74-4.375 5.833l6.38 9.662H49.3l-5.287-8.75zm0-3.1H43.1a6.27 6.27 0 0 0 3.646-.911 3.439 3.439 0 0 0 1.094-2.734 2.878 2.878 0 0 0-1.276-2.734A6.813 6.813 0 0 0 42.916 35h-2.37z" data-name="Path 99" transform="translate(25.429 22.96)"/>
        <path id="Path_100" d="M63.271 54.04l-2.188-6.2H52.7l-2.37 6.2H46.5l8.2-22.24h4.01l8.39 22.24zm-3.281-9.3l-2.005-6.016a11.328 11.328 0 0 1-.547-1.823 11.326 11.326 0 0 0-.547-1.823 20.212 20.212 0 0 1-1.276 4.01l-2.005 5.833h6.38z" data-name="Path 100" transform="translate(33.329 22.878)"/>
        <path id="Path_101" d="M77.147 42.655a11.284 11.284 0 0 1-3.1 8.386c-2.005 2.005-4.922 2.917-8.75 2.917H59.1V31.9h6.927c3.464 0 6.2.911 8.2 2.917s2.92 4.375 2.92 7.838zm-3.828.182c0-5.287-2.552-8.021-7.474-8.021h-3.1v16.043H65.3c5.285 0 8.019-2.735 8.019-8.021z" data-name="Path 101" transform="translate(43.698 22.96)"/>
        <path id="Path_102" d="M57.042 4h-12.76v18.229h-9.115v-9.114H18.761v20.052H6v14.584h3.646V36.813h9.115v10.938h3.646v-30.99h9.115v30.99h3.646V25.875h9.115v21.876h3.646V7.646h9.115v40.1h3.646V4z" class="cls-1" data-name="Path 102"/>
    </g>
</svg>
